<?xml version="1.0" encoding="UTF-8"?>
<svg width="217px" height="51px" viewBox="0 0 217 51" version="1.1" xmlns="http://www.w3.org/2000/svg" xmlns:xlink="http://www.w3.org/1999/xlink">
    <!-- Generator: Sketch 41 (35326) - http://www.bohemiancoding.com/sketch -->
    <title>logo_alberto_riva</title>
    <desc>Created with Sketch.</desc>
    <defs>
        <polygon id="path-1" points="64 39.4678 216.258 39.4678 216.258 10.9998 64 10.9998"></polygon>
    </defs>
    <g id="Symbols" stroke="none" stroke-width="1" fill="none" fill-rule="evenodd">
        <g id="logo_alberto_riva">
            <path d="M19.8673846,0 L0,11.4704615 L0,38.3858462 L19.8673846,49.856 L39.7347692,38.3858462 L39.7347692,11.4704615 L19.8673846,0 Z M4.61569231,12.3587692 L19.8673846,3.55292308 L35.1193846,12.3587692 L19.8673846,21.1643077 L4.61569231,12.3587692 Z M36.6578462,15.0233846 L36.6578462,36.6095385 L31.8507692,39.3849231 L31.8670769,23.7507692 L19.8695385,30.8649231 L7.92461538,23.7433846 L7.94092308,39.4175385 L3.07692308,36.6095385 L3.07692308,15.0233846 L19.8673846,24.7172308 L36.6578462,15.0233846 Z M28.7846154,29.156 L28.772,41.1624615 L19.8673846,46.3030769 L11.0196923,41.1950769 L11.0070769,29.1636923 L19.8655385,34.4449231 L28.7846154,29.156 Z" id="Page-1" fill="#FF3B00"></path>
            <path d="M70.039,11.3194 L64,25.3004 L67.32,25.3004 L68.619,22.2804 L74.48,22.2804 L75.779,25.3004 L79.099,25.3004 L73.059,11.3194 L70.039,11.3194 Z M71.56,15.4794 L73.3,19.5404 L69.8,19.5404 L71.56,15.4794 Z" id="Fill-1" fill="#FFFFFF"></path>
            <polygon id="Fill-2" fill="#FFFFFF" points="80.9002 11.3194 80.9002 25.3004 89.9792 25.3004 89.9792 22.5204 84.0192 22.5204 84.0192 11.3194"></polygon>
            <path d="M95.5586,22.6602 L97.6996,22.6602 C98.5916,22.6602 99.2616,22.5502 99.7086,22.3302 C100.1566,22.1092 100.3786,21.6772 100.3786,21.0302 C100.3786,20.3832 100.1426,19.9572 99.6696,19.7502 C99.1956,19.5432 98.4396,19.4392 97.3996,19.4392 L95.5586,19.4392 L95.5586,22.6602 Z M95.5586,16.9792 L97.0386,16.9792 C97.9066,16.9792 98.5486,16.8872 98.9686,16.7002 C99.3886,16.5142 99.5996,16.1092 99.5996,15.4902 C99.5996,14.8702 99.4066,14.4602 99.0196,14.2602 C98.6326,14.0592 97.9786,13.9602 97.0586,13.9602 L95.5586,13.9602 L95.5586,16.9792 Z M98.5586,25.3002 L92.4396,25.3002 L92.4396,11.3192 L97.8786,11.3192 C98.8266,11.3192 99.6426,11.4332 100.3296,11.6602 C101.0156,11.8872 101.5326,12.1932 101.8786,12.5802 C102.5056,13.3002 102.8196,14.1132 102.8196,15.0192 C102.8196,16.1132 102.4656,16.9272 101.7596,17.4602 C101.5196,17.6462 101.3526,17.7642 101.2596,17.8092 C101.1656,17.8562 100.9986,17.9332 100.7596,18.0402 C101.6256,18.2262 102.3166,18.6162 102.8296,19.2102 C103.3416,19.8042 103.5996,20.5402 103.5996,21.4202 C103.5996,22.3932 103.2656,23.2532 102.5996,24.0002 C101.8266,24.8662 100.4786,25.3002 98.5586,25.3002 Z" id="Fill-3" fill="#FFFFFF"></path>
            <polygon id="Fill-5" fill="#FFFFFF" points="116.4785 11.3194 116.4785 14.0994 109.5195 14.0994 109.5195 16.9794 115.7795 16.9794 115.7795 19.6394 109.5195 19.6394 109.5195 22.5404 116.6995 22.5404 116.6995 25.2994 106.3995 25.2994 106.3995 11.3194"></polygon>
            <path d="M127.2588,17.6201 C127.6458,17.2731 127.8388,16.7241 127.8388,15.9701 C127.8388,15.2171 127.6388,14.7001 127.2378,14.4201 C126.8388,14.1401 126.1388,14.0001 125.1388,14.0001 L122.7988,14.0001 L122.7988,18.1401 L125.0788,18.1401 C126.1458,18.1401 126.8718,17.9671 127.2588,17.6201 M131.0198,15.9601 C131.0198,18.2001 130.1328,19.6461 128.3598,20.3001 L131.8988,25.3001 L128.0588,25.3001 L124.9588,20.8401 L122.7988,20.8401 L122.7988,25.3001 L119.6798,25.3001 L119.6798,11.3191 L124.9788,11.3191 C127.1528,11.3191 128.7018,11.6861 129.6288,12.4201 C130.5558,13.1531 131.0198,14.3331 131.0198,15.9601" id="Fill-7" fill="#FFFFFF"></path>
            <polygon id="Fill-9" fill="#FFFFFF" points="140.0791 14.0196 140.0791 25.2996 136.9591 25.2996 136.9591 14.0196 132.9991 14.0196 132.9991 11.3196 144.0391 11.3196 144.0391 14.0196"></polygon>
            <path d="M156.8584,18.2295 C156.8584,16.9835 156.4594,15.9195 155.6584,15.0405 C154.8584,14.1605 153.8754,13.7195 152.7094,13.7195 C151.5414,13.7195 150.5584,14.1605 149.7574,15.0405 C148.9594,15.9195 148.5584,16.9835 148.5584,18.2295 C148.5584,19.4765 148.9594,20.5375 149.7574,21.4105 C150.5584,22.2835 151.5414,22.7195 152.7094,22.7195 C153.8754,22.7195 154.8584,22.2835 155.6584,21.4105 C156.4594,20.5375 156.8584,19.4765 156.8584,18.2295 M157.9184,23.3705 C156.5044,24.7505 154.7654,25.4395 152.6984,25.4395 C150.6314,25.4395 148.8914,24.7505 147.4784,23.3705 C146.0644,21.9905 145.3584,20.2735 145.3584,18.2195 C145.3584,16.1665 146.0644,14.4505 147.4784,13.0695 C148.8914,11.6895 150.6314,11.0005 152.6984,11.0005 C154.7654,11.0005 156.5044,11.6895 157.9184,13.0695 C159.3324,14.4505 160.0394,16.1665 160.0394,18.2195 C160.0394,20.2735 159.3324,21.9905 157.9184,23.3705" id="Fill-11" fill="#FFFFFF"></path>
            <path d="M175.9375,17.6201 C176.3245,17.2731 176.5175,16.7241 176.5175,15.9701 C176.5175,15.2171 176.3185,14.7001 175.9175,14.4201 C175.5175,14.1401 174.8185,14.0001 173.8185,14.0001 L171.4785,14.0001 L171.4785,18.1401 L173.7575,18.1401 C174.8245,18.1401 175.5505,17.9671 175.9375,17.6201 M179.6985,15.9601 C179.6985,18.2001 178.8115,19.6461 177.0385,20.3001 L180.5785,25.3001 L176.7385,25.3001 L173.6385,20.8401 L171.4785,20.8401 L171.4785,25.3001 L168.3585,25.3001 L168.3585,11.3191 L173.6585,11.3191 C175.8325,11.3191 177.3805,11.6861 178.3085,12.4201 C179.2345,13.1531 179.6985,14.3331 179.6985,15.9601" id="Fill-13" fill="#FFFFFF"></path>
            <mask id="mask-2" fill="white">
                <use xlink:href="#path-1"></use>
            </mask>
            <g id="Clip-16"></g>
            <polygon id="Fill-15" fill="#FFFFFF" mask="url(#mask-2)" points="183.098 25.2998 186.218 25.2998 186.218 11.3198 183.098 11.3198"></polygon>
            <polygon id="Fill-17" fill="#FFFFFF" mask="url(#mask-2)" points="195.0176 20.2198 198.5786 11.3198 201.9566 11.3198 196.3376 25.2998 193.6976 25.2998 188.0786 11.3198 191.4566 11.3198"></polygon>
            <path d="M208.7178,15.4795 L206.9578,19.5405 L210.4578,19.5405 L208.7178,15.4795 Z M212.9378,25.2995 L211.6378,22.2805 L205.7778,22.2805 L204.4788,25.2995 L201.1578,25.2995 L207.1968,11.3195 L210.2178,11.3195 L216.2578,25.2995 L212.9378,25.2995 Z" id="Fill-18" fill="#FFFFFF" mask="url(#mask-2)"></path>
            <path d="M64.627,35.2705 C64.627,32.4275 66.043,31.0605 68.369,31.0605 C69.509,31.0605 70.504,31.5515 71.068,32.3325 C71.128,32.4165 71.152,32.4995 71.152,32.5825 C71.152,32.7995 70.984,32.9675 70.768,32.9675 C70.66,32.9675 70.553,32.9315 70.456,32.8115 C70.049,32.2485 69.269,31.8035 68.369,31.8035 C66.523,31.8035 65.467,32.9185 65.467,35.2705 C65.467,37.7645 66.523,38.7235 68.369,38.7235 C69.16,38.7235 69.988,38.4125 70.456,37.7405 C70.54,37.6215 70.672,37.5845 70.768,37.5845 C70.984,37.5845 71.152,37.7525 71.152,37.9685 C71.152,38.0645 71.128,38.1245 71.08,38.1965 C70.553,38.9635 69.473,39.4675 68.369,39.4675 C66.043,39.4675 64.627,38.2205 64.627,35.2705" id="Fill-19" fill="#DBE2E3" mask="url(#mask-2)"></path>
            <path d="M74.7187,34.6699 C74.9587,34.1179 75.5587,33.7109 76.3857,33.7109 C76.5897,33.7109 76.7577,33.8789 76.7577,34.0829 C76.7577,34.2859 76.5897,34.4539 76.3857,34.4539 C75.2817,34.4539 74.7187,35.2219 74.7187,36.3249 L74.7187,39.0119 C74.7187,39.2279 74.5507,39.3959 74.3347,39.3959 C74.1187,39.3959 73.9507,39.2279 73.9507,39.0119 L73.9507,34.1429 C73.9507,33.9269 74.1187,33.7589 74.3347,33.7589 C74.5507,33.7589 74.7187,33.9269 74.7187,34.1429 L74.7187,34.6699 Z" id="Fill-20" fill="#DBE2E3" mask="url(#mask-2)"></path>
            <path d="M81.1504,34.3828 C80.1064,34.3828 79.5314,35.0538 79.4594,36.1208 L82.6854,36.1208 C82.6854,35.2578 82.3844,34.3828 81.1504,34.3828 M81.1504,33.6868 C83.0684,33.6868 83.4404,35.2098 83.4404,36.0258 C83.4404,36.3728 83.4404,36.7928 82.9614,36.7928 L79.4594,36.7928 C79.4594,37.9808 80.1424,38.7478 81.2694,38.7478 C81.9644,38.7478 82.3734,38.4848 82.7094,38.2328 C82.7814,38.1848 82.8284,38.1598 82.9244,38.1598 C83.1174,38.1598 83.2724,38.3168 83.2724,38.5078 C83.2724,38.6408 83.2134,38.7118 83.1404,38.7838 C82.9614,38.9638 82.3374,39.4558 81.2694,39.4558 C79.6734,39.4558 78.6794,38.5798 78.6794,36.5658 C78.6794,34.7188 79.5894,33.6868 81.1504,33.6868" id="Fill-21" fill="#DBE2E3" mask="url(#mask-2)"></path>
            <path d="M89.5488,37.2246 L89.5488,36.7216 L87.8578,36.7216 C87.0778,36.7216 86.5388,37.0446 86.5388,37.7406 C86.5388,38.3646 86.9708,38.7596 87.9058,38.7596 C88.7448,38.7596 89.5488,38.2446 89.5488,37.2246 M86.7418,35.0186 C86.6228,35.1506 86.5388,35.1866 86.4308,35.1866 C86.2378,35.1866 86.0818,35.0306 86.0818,34.8376 C86.0818,34.7536 86.1068,34.6946 86.1428,34.6346 C86.4788,34.1066 87.1258,33.6866 88.1338,33.6866 C89.5258,33.6866 90.2928,34.5026 90.2928,35.7256 L90.2928,39.0246 C90.2928,39.2276 90.1248,39.3956 89.9198,39.3956 C89.7168,39.3956 89.5488,39.2276 89.5488,39.0246 L89.5488,38.5916 C89.2488,39.1566 88.5528,39.4556 87.8338,39.4556 C86.5628,39.4556 85.7588,38.8436 85.7588,37.7406 C85.7588,36.6856 86.5628,36.0496 87.8578,36.0496 L89.5488,36.0496 L89.5488,35.7256 C89.5488,34.9106 89.0098,34.4066 88.1338,34.4066 C87.4978,34.4066 87.1138,34.5986 86.7418,35.0186" id="Fill-22" fill="#DBE2E3" mask="url(#mask-2)"></path>
            <path d="M93.5352,32.5957 C93.5352,32.3917 93.7152,32.2117 93.9182,32.2117 C94.1352,32.2117 94.3032,32.3917 94.3032,32.5957 L94.3032,33.8547 L95.0822,33.8547 C95.2852,33.8547 95.4412,34.0107 95.4412,34.2147 C95.4412,34.4187 95.2852,34.5747 95.0822,34.5747 L94.3032,34.5747 L94.3032,37.8847 C94.3032,38.4007 94.5902,38.6757 94.9982,38.6757 C95.2012,38.6757 95.3692,38.8317 95.3692,39.0357 C95.3692,39.2407 95.2012,39.3957 94.9982,39.3957 C94.0512,39.3957 93.5352,38.7597 93.5352,37.8847 L93.5352,34.5747 L93.0662,34.5747 C92.8632,34.5747 92.7072,34.4187 92.7072,34.2147 C92.7072,34.0107 92.8632,33.8547 93.0662,33.8547 L93.5352,33.8547 L93.5352,32.5957 Z" id="Fill-23" fill="#DBE2E3" mask="url(#mask-2)"></path>
            <path d="M98.8379,39.0117 C98.8379,39.2277 98.6699,39.3957 98.4549,39.3957 C98.2379,39.3957 98.0699,39.2277 98.0699,39.0117 L98.0699,34.1427 C98.0699,33.9267 98.2379,33.7587 98.4549,33.7587 C98.6699,33.7587 98.8379,33.9267 98.8379,34.1427 L98.8379,39.0117 Z M97.9989,32.1757 C97.9989,31.8277 98.1669,31.6967 98.4549,31.6967 C98.7419,31.6967 98.9099,31.8277 98.9099,32.1757 C98.9099,32.4637 98.7419,32.6317 98.4549,32.6317 C98.1669,32.6317 97.9989,32.4637 97.9989,32.1757 L97.9989,32.1757 Z" id="Fill-24" fill="#DBE2E3" mask="url(#mask-2)"></path>
            <path d="M103.3857,39.1563 L101.3477,34.3103 C101.3347,34.2743 101.3107,34.2263 101.3107,34.1423 C101.3107,33.9273 101.4787,33.7593 101.6957,33.7593 C101.9097,33.7593 102.0067,33.8903 102.0547,34.0103 L103.7457,38.1483 L105.4367,34.0103 C105.4847,33.8903 105.5797,33.7593 105.7967,33.7593 C106.0127,33.7593 106.1797,33.9273 106.1797,34.1423 C106.1797,34.2263 106.1567,34.2743 106.1447,34.3103 L104.1057,39.1563 C104.0327,39.3113 103.9017,39.3953 103.7457,39.3953 C103.5897,39.3953 103.4577,39.3113 103.3857,39.1563" id="Fill-25" fill="#DBE2E3" mask="url(#mask-2)"></path>
            <path d="M110.7656,34.3828 C109.7226,34.3828 109.1466,35.0538 109.0746,36.1208 L112.3006,36.1208 C112.3006,35.2578 112.0006,34.3828 110.7656,34.3828 M110.7656,33.6868 C112.6846,33.6868 113.0566,35.2098 113.0566,36.0258 C113.0566,36.3728 113.0566,36.7928 112.5766,36.7928 L109.0746,36.7928 C109.0746,37.9808 109.7576,38.7478 110.8846,38.7478 C111.5806,38.7478 111.9886,38.4848 112.3246,38.2328 C112.3966,38.1848 112.4446,38.1598 112.5406,38.1598 C112.7326,38.1598 112.8886,38.3168 112.8886,38.5078 C112.8886,38.6408 112.8286,38.7118 112.7556,38.7838 C112.5766,38.9638 111.9526,39.4558 110.8846,39.4558 C109.2896,39.4558 108.2946,38.5798 108.2946,36.5658 C108.2946,34.7188 109.2056,33.6868 110.7656,33.6868" id="Fill-26" fill="#DBE2E3" mask="url(#mask-2)"></path>
            <path d="M123.4609,37.7647 L120.9539,33.0997 L120.9539,38.9997 C120.9539,39.2157 120.7729,39.3957 120.5589,39.3957 C120.3419,39.3957 120.1619,39.2157 120.1619,38.9997 L120.1619,31.5287 C120.1619,31.3127 120.3419,31.1317 120.5589,31.1317 C120.7379,31.1317 120.8569,31.2407 120.9179,31.3607 L123.8199,36.7927 L126.7339,31.3607 C126.7829,31.2767 126.8789,31.1317 127.0949,31.1317 C127.3109,31.1317 127.4899,31.3127 127.4899,31.5287 L127.4899,38.9997 C127.4899,39.2157 127.3109,39.3957 127.0949,39.3957 C126.8789,39.3957 126.6989,39.2157 126.6989,38.9997 L126.6989,33.0997 L124.1799,37.7647 C124.0959,37.9207 123.9649,37.9927 123.8199,37.9927 C123.6999,37.9927 123.5449,37.9327 123.4609,37.7647" id="Fill-27" fill="#DBE2E3" mask="url(#mask-2)"></path>
            <path d="M134.1523,37.2246 L134.1523,36.7216 L132.4613,36.7216 C131.6813,36.7216 131.1423,37.0446 131.1423,37.7406 C131.1423,38.3646 131.5743,38.7596 132.5093,38.7596 C133.3483,38.7596 134.1523,38.2446 134.1523,37.2246 M131.3453,35.0186 C131.2263,35.1506 131.1423,35.1866 131.0343,35.1866 C130.8413,35.1866 130.6853,35.0306 130.6853,34.8376 C130.6853,34.7536 130.7103,34.6946 130.7463,34.6346 C131.0823,34.1066 131.7293,33.6866 132.7373,33.6866 C134.1293,33.6866 134.8963,34.5026 134.8963,35.7256 L134.8963,39.0246 C134.8963,39.2276 134.7283,39.3956 134.5233,39.3956 C134.3203,39.3956 134.1523,39.2276 134.1523,39.0246 L134.1523,38.5916 C133.8523,39.1566 133.1563,39.4556 132.4373,39.4556 C131.1663,39.4556 130.3623,38.8436 130.3623,37.7406 C130.3623,36.6856 131.1663,36.0496 132.4613,36.0496 L134.1523,36.0496 L134.1523,35.7256 C134.1523,34.9106 133.6133,34.4066 132.7373,34.4066 C132.1013,34.4066 131.7173,34.5986 131.3453,35.0186" id="Fill-28" fill="#DBE2E3" mask="url(#mask-2)"></path>
            <path d="M141.46,39.2158 L139.338,36.4928 L138.606,37.0808 L138.606,39.0118 C138.606,39.2278 138.438,39.3958 138.223,39.3958 C138.006,39.3958 137.838,39.2278 137.838,39.0118 L137.838,31.1448 C137.838,30.9288 138.006,30.7608 138.223,30.7608 C138.438,30.7608 138.606,30.9288 138.606,31.1448 L138.606,36.1698 L141.436,33.8548 C141.532,33.7708 141.628,33.7588 141.7,33.7588 C141.916,33.7588 142.084,33.9268 142.084,34.1428 C142.084,34.2378 142.048,34.3588 141.928,34.4538 L139.961,36.0258 L142.096,38.7728 C142.168,38.8568 142.18,38.9408 142.18,39.0118 C142.18,39.2278 142.012,39.3958 141.796,39.3958 C141.664,39.3958 141.557,39.3358 141.46,39.2158" id="Fill-29" fill="#DBE2E3" mask="url(#mask-2)"></path>
            <path d="M146.8848,34.3828 C145.8418,34.3828 145.2658,35.0538 145.1938,36.1208 L148.4198,36.1208 C148.4198,35.2578 148.1198,34.3828 146.8848,34.3828 M146.8848,33.6868 C148.8038,33.6868 149.1758,35.2098 149.1758,36.0258 C149.1758,36.3728 149.1758,36.7928 148.6958,36.7928 L145.1938,36.7928 C145.1938,37.9808 145.8768,38.7478 147.0038,38.7478 C147.6998,38.7478 148.1078,38.4848 148.4438,38.2328 C148.5158,38.1848 148.5638,38.1598 148.6598,38.1598 C148.8518,38.1598 149.0078,38.3168 149.0078,38.5078 C149.0078,38.6408 148.9478,38.7118 148.8748,38.7838 C148.6958,38.9638 148.0718,39.4558 147.0038,39.4558 C145.4088,39.4558 144.4138,38.5798 144.4138,36.5658 C144.4138,34.7188 145.3248,33.6868 146.8848,33.6868" id="Fill-30" fill="#DBE2E3" mask="url(#mask-2)"></path>
            <path d="M152.6328,34.6699 C152.8728,34.1179 153.4728,33.7109 154.3008,33.7109 C154.5038,33.7109 154.6718,33.8789 154.6718,34.0829 C154.6718,34.2859 154.5038,34.4539 154.3008,34.4539 C153.1968,34.4539 152.6328,35.2219 152.6328,36.3249 L152.6328,39.0119 C152.6328,39.2279 152.4648,39.3959 152.2498,39.3959 C152.0328,39.3959 151.8648,39.2279 151.8648,39.0119 L151.8648,34.1429 C151.8648,33.9269 152.0328,33.7589 152.2498,33.7589 C152.4648,33.7589 152.6328,33.9269 152.6328,34.1429 L152.6328,34.6699 Z" id="Fill-31" fill="#DBE2E3" mask="url(#mask-2)"></path>
            <path d="M163.9355,34.4063 C165.8905,34.4063 166.4785,35.6533 166.4785,36.9973 C166.4785,38.5683 165.5315,39.4683 163.7075,39.4683 C162.4245,39.4683 161.5975,38.8913 161.1295,38.1123 C161.0935,38.0523 161.0705,37.9923 161.0705,37.9083 C161.0705,37.7053 161.2255,37.5493 161.4295,37.5493 C161.5375,37.5493 161.6575,37.5853 161.7535,37.7403 C162.1245,38.3523 162.7365,38.7483 163.7075,38.7483 C165.0395,38.7483 165.6875,38.1123 165.6875,36.9973 C165.6875,35.9053 165.2435,35.1263 163.8755,35.1263 L163.0375,35.1263 C162.8315,35.1263 162.6765,34.9693 162.6765,34.7663 C162.6765,34.6583 162.7125,34.5863 162.7735,34.5143 L164.9795,31.9483 L161.8845,31.9483 C161.6815,31.9483 161.5255,31.7923 161.5255,31.5883 C161.5255,31.3843 161.6815,31.2283 161.8845,31.2283 L165.7945,31.2283 C165.9985,31.2283 166.1545,31.3843 166.1545,31.5883 C166.1545,31.6723 166.1305,31.7563 166.0585,31.8403 L163.8165,34.4063 L163.9355,34.4063 Z" id="Fill-32" fill="#DBE2E3" mask="url(#mask-2)"></path>
            <path d="M173.1152,35.4375 C173.1152,35.4375 172.6602,34.3825 171.5322,34.3825 C170.4412,34.3825 169.8422,35.0895 169.8422,36.5655 C169.8422,38.0645 170.4282,38.7595 171.5322,38.7595 C172.4552,38.7595 173.1152,38.2325 173.1152,37.0925 L173.1152,35.4375 Z M173.1152,34.4665 L173.1152,31.1445 C173.1152,30.9285 173.2832,30.7605 173.4992,30.7605 C173.7152,30.7605 173.8832,30.9285 173.8832,31.1445 L173.8832,37.0925 C173.8832,38.6755 172.8992,39.4565 171.5322,39.4565 C169.9842,39.4565 169.0742,38.5325 169.0742,36.5655 C169.0742,34.5985 169.9372,33.6865 171.4842,33.6865 C172.2522,33.6865 172.8402,34.0835 173.1152,34.4665 L173.1152,34.4665 Z" id="Fill-33" fill="#DBE2E3" mask="url(#mask-2)"></path>
        </g>
    </g>
</svg>